<svg id="svg" version="1.1" xmlns="http://www.w3.org/2000/svg" xmlns:xlink="http://www.w3.org/1999/xlink" width="400" height="400" viewBox="0, 0, 400,400"><g id="svgg"><path id="path0" d="M256.917 193.166 L 256.266 193.833 199.925 193.875 L 143.583 193.917 168.291 218.667 C 181.881 232.279,193.431 243.759,193.958 244.179 C 197.345 246.870,200.702 247.657,203.333 246.375 C 204.287 245.911,258.144 192.500,257.659 192.500 C 257.609 192.500,257.275 192.800,256.917 193.166 M291.333 307.417 C 291.107 307.689,109.925 307.814,109.570 307.542 C 109.004 307.107,123.417 321.433,125.059 322.937 C 126.982 324.697,129.908 327.231,131.484 328.500 C 131.882 328.821,132.517 329.337,132.896 329.647 C 133.882 330.456,136.363 332.280,137.917 333.338 C 138.650 333.838,139.287 334.286,139.333 334.335 C 139.379 334.384,140.242 334.941,141.250 335.574 C 151.961 342.298,163.611 346.815,176.500 349.241 C 180.716 350.035,184.073 350.516,188.250 350.925 C 196.632 351.745,211.224 351.652,217.417 350.740 C 227.255 349.290,235.623 347.117,243.083 344.075 C 243.908 343.738,244.937 343.322,245.370 343.151 C 247.872 342.158,255.439 338.368,256.691 337.481 C 256.933 337.309,257.279 337.112,257.458 337.043 C 258.993 336.450,267.373 330.631,270.612 327.910 C 271.330 327.307,272.329 326.467,272.833 326.043 C 273.337 325.620,276.600 322.402,280.083 318.893 C 283.567 315.384,287.614 311.311,289.077 309.840 C 290.539 308.370,291.692 307.167,291.639 307.167 C 291.585 307.167,291.447 307.279,291.333 307.417 " stroke="none" fill="#830494" fill-rule="evenodd"></path><path id="path1" d="M199.333 32.591 C 197.257 33.169,197.734 32.729,180.377 50.065 L 163.837 66.583 191.835 94.601 C 207.234 110.011,219.833 122.587,219.833 122.549 C 219.833 122.511,220.068 122.728,220.355 123.031 C 220.643 123.335,220.825 123.489,220.762 123.374 C 220.669 123.207,227.965 123.174,257.392 123.208 C 291.286 123.247,294.116 123.229,293.860 122.980 C 293.708 122.831,293.532 122.738,293.470 122.774 C 293.408 122.809,293.314 122.706,293.261 122.544 C 292.963 121.629,204.078 33.213,203.083 32.842 C 201.782 32.357,200.485 32.270,199.333 32.591 M124.750 104.246 C 123.771 105.284,112.797 116.453,107.348 121.956 C 106.485 122.828,105.936 123.457,106.129 123.354 C 106.381 123.218,111.973 123.167,126.322 123.167 C 137.699 123.167,146.167 123.104,146.167 123.019 C 146.167 122.938,145.866 122.601,145.500 122.269 C 145.133 121.938,144.864 121.667,144.902 121.667 C 144.940 121.667,140.767 117.467,135.628 112.333 C 130.489 107.200,126.202 103.002,126.101 103.004 C 125.999 103.007,125.392 103.565,124.750 104.246 M345.247 175.375 C 344.465 178.036,341.105 183.395,337.121 188.333 C 336.493 189.112,322.632 203.105,306.319 219.427 C 290.007 235.750,276.711 249.156,276.774 249.219 C 277.040 249.485,349.292 249.349,349.394 249.082 C 349.447 248.943,349.549 248.847,349.620 248.869 C 349.764 248.911,354.071 244.664,355.641 242.932 C 363.283 234.499,368.151 219.746,366.758 209.239 C 365.537 200.025,360.892 190.869,352.855 181.833 C 350.878 179.611,345.827 174.333,345.677 174.333 C 345.609 174.333,345.415 174.802,345.247 175.375 M53.986 175.640 C 51.547 177.187,49.544 179.073,46.084 183.083 C 41.614 188.263,35.454 200.426,33.847 207.243 C 31.953 215.277,33.524 224.608,38.225 233.250 C 40.963 238.282,43.356 241.411,48.095 246.155 L 51.274 249.336 87.998 249.334 C 122.425 249.332,124.744 249.350,125.069 249.617 C 125.260 249.774,112.742 237.205,97.250 221.685 C 81.758 206.165,68.708 193.166,68.250 192.798 C 65.999 190.991,62.761 186.821,57.310 178.708 C 56.001 176.760,54.885 175.167,54.831 175.167 C 54.776 175.167,54.396 175.379,53.986 175.640 " stroke="none" fill="#ef0484" fill-rule="evenodd"></path><path id="path2" d="M226.667 149.292 C 226.667 149.406,226.592 149.500,226.500 149.500 C 226.339 149.500,223.962 151.808,213.259 162.352 C 210.504 165.066,208.006 167.520,207.708 167.805 C 207.410 168.089,207.167 168.400,207.167 168.494 C 207.167 168.612,218.867 168.667,244.360 168.667 L 281.553 168.667 291.193 159.043 C 296.495 153.749,300.833 149.362,300.833 149.293 C 300.833 149.224,284.146 149.149,263.750 149.126 C 234.172 149.092,226.667 149.125,226.667 149.292 M99.187 149.458 C 99.312 149.619,103.691 154.025,108.919 159.250 L 118.423 168.750 155.045 168.708 C 179.265 168.680,191.667 168.610,191.667 168.500 C 191.667 168.408,191.554 168.333,191.417 168.333 C 191.279 168.333,191.167 168.243,191.167 168.133 C 191.167 168.022,186.949 163.710,181.793 158.549 L 172.420 149.167 135.690 149.167 C 100.733 149.167,98.970 149.181,99.187 149.458 M205.997 169.421 C 205.685 169.796,205.866 169.840,206.237 169.478 C 206.414 169.307,206.479 169.167,206.383 169.167 C 206.286 169.167,206.113 169.281,205.997 169.421 M73.093 271.048 C 73.138 271.166,76.721 274.804,81.055 279.132 L 88.935 287.000 125.842 286.993 C 160.673 286.986,162.727 286.969,162.347 286.701 C 162.125 286.545,158.412 282.912,154.097 278.628 L 146.250 270.838 109.630 270.836 C 79.808 270.834,73.026 270.873,73.093 271.048 M250.787 275.042 C 245.117 280.694,242.052 283.533,239.675 285.333 C 239.372 285.563,239.002 285.862,238.852 286.000 C 238.702 286.137,238.364 286.419,238.101 286.625 L 237.622 287.000 274.638 287.000 L 311.655 287.000 312.133 286.542 C 312.396 286.290,313.017 285.701,313.514 285.234 C 315.184 283.661,327.667 271.061,327.667 270.946 C 327.667 270.884,311.319 270.833,291.338 270.833 L 255.009 270.833 250.787 275.042 " stroke="none" fill="#b3048c" fill-rule="evenodd"></path><path id="path3" d="M106.314 122.958 C 106.303 123.027,106.303 123.140,106.314 123.208 C 106.324 123.277,106.268 123.333,106.187 123.333 C 106.005 123.333,94.540 134.846,93.853 135.719 C 91.243 139.034,93.171 144.649,98.231 148.470 C 98.495 148.670,98.645 148.834,98.564 148.836 C 98.483 148.837,98.529 148.911,98.667 149.000 C 98.826 149.103,112.228 149.162,135.667 149.164 L 172.417 149.166 159.412 136.164 L 146.407 123.161 126.360 123.165 C 112.931 123.168,106.346 123.114,106.416 123.001 C 106.473 122.909,106.478 122.833,106.427 122.833 C 106.375 122.833,106.324 122.890,106.314 122.958 M220.667 123.284 C 220.667 123.349,224.210 126.950,228.542 131.288 C 232.873 135.625,236.436 139.230,236.460 139.299 C 236.503 139.427,229.283 146.674,228.126 147.666 C 227.782 147.960,227.543 148.268,227.594 148.350 C 227.645 148.433,227.565 148.500,227.417 148.500 C 227.268 148.500,227.194 148.576,227.251 148.668 C 227.308 148.760,227.218 148.891,227.052 148.960 C 226.886 149.028,243.438 149.121,263.833 149.167 L 300.917 149.250 303.966 146.254 C 308.394 141.905,308.915 140.447,307.259 137.052 C 306.629 135.759,295.461 124.167,294.846 124.167 C 294.736 124.167,294.690 124.098,294.742 124.013 C 294.794 123.929,294.638 123.704,294.396 123.513 L 293.955 123.167 257.311 123.167 C 237.157 123.167,220.667 123.220,220.667 123.284 M276.371 249.542 C 276.329 249.702,276.214 249.833,276.116 249.833 C 275.888 249.833,255.500 270.242,255.500 270.471 C 255.500 270.565,255.369 270.677,255.208 270.718 C 255.048 270.760,271.290 270.803,291.302 270.814 C 320.359 270.829,327.662 270.875,327.565 271.042 C 327.498 271.156,327.606 271.107,327.805 270.933 C 328.004 270.758,328.167 270.514,328.167 270.391 C 328.167 270.268,328.236 270.185,328.321 270.208 C 328.406 270.231,333.141 265.563,338.842 259.833 L 349.208 249.417 338.979 249.375 C 295.066 249.197,276.448 249.246,276.371 249.542 M51.502 249.458 C 51.504 249.527,56.388 254.458,62.357 260.417 C 68.326 266.375,73.158 271.156,73.095 271.042 C 73.003 270.875,80.352 270.833,109.586 270.833 L 146.192 270.833 144.638 269.217 C 139.855 264.244,125.730 250.167,125.522 250.167 C 125.388 250.167,125.325 250.119,125.383 250.061 C 125.441 250.003,125.311 249.816,125.093 249.645 C 124.679 249.319,51.496 249.133,51.502 249.458 " stroke="none" fill="#ca048c" fill-rule="evenodd"></path><path id="path4" d="M155.125 168.625 C 134.981 168.648,118.500 168.708,118.500 168.758 C 118.500 168.807,124.215 174.563,131.200 181.549 C 138.184 188.534,143.842 194.156,143.773 194.042 C 143.672 193.875,154.963 193.833,200.009 193.833 L 256.371 193.833 269.026 181.208 L 281.681 168.583 244.328 168.624 C 206.465 168.666,206.431 168.666,206.362 169.214 C 206.342 169.371,205.833 169.899,205.833 169.763 C 205.833 169.711,204.401 171.074,202.650 172.792 C 200.899 174.511,199.402 175.917,199.324 175.917 C 199.245 175.917,197.508 174.267,195.465 172.250 L 191.750 168.583 155.125 168.625 M99.010 297.051 L 109.604 307.667 200.417 307.667 L 291.229 307.667 300.823 298.015 C 306.100 292.707,310.708 288.057,311.063 287.682 L 311.710 287.000 274.617 287.000 C 241.118 287.000,237.498 287.025,237.262 287.262 C 237.118 287.406,236.999 287.462,236.997 287.387 C 236.996 287.312,236.940 287.325,236.872 287.417 C 236.765 287.563,234.230 289.302,233.471 289.750 C 233.315 289.842,232.565 290.284,231.803 290.734 C 231.040 291.183,230.079 291.759,229.667 292.015 C 219.530 298.291,205.342 300.966,191.417 299.226 C 182.580 298.121,171.383 293.514,164.175 288.016 L 162.842 287.000 125.976 287.000 C 91.553 287.000,89.087 286.981,88.763 286.717 C 88.573 286.562,93.184 291.212,99.010 297.051 " stroke="none" fill="#9f0493" fill-rule="evenodd"></path></g></svg>